<svg width="32" height="31" viewBox="0 0 32 31" fill="none" xmlns="http://www.w3.org/2000/svg">
<path d="M10.7636 0H20.545V3.52243C21.5996 3.96725 22.5092 4.49872 23.3384 5.13013L23.3074 5.10751L26.4058 3.3192L31.3073 11.8542L28.2049 13.6358C28.2709 14.107 28.3085 14.6514 28.3085 15.2046C28.3085 15.7578 28.2709 16.3022 28.198 16.8354L28.2049 16.7734L31.3073 18.5549L26.4057 27.09L23.3061 25.3017C22.5078 25.9104 21.5983 26.4419 20.6266 26.8554L20.5437 26.8867V30.4823H10.7637V27.0073C9.70905 26.5624 8.79952 26.0309 7.97025 25.3995L8.00127 25.4222L4.90154 27.2105L0 18.6755L3.10377 16.8939C3.0368 16.4146 2.99863 15.8608 2.99863 15.298C2.99863 14.7353 3.03686 14.1814 3.11086 13.6391L3.10377 13.7021L0.00136932 11.9179L4.90294 3.38285L8.00261 5.17115C8.8005 4.56145 9.7095 4.02914 10.6809 3.61471L10.7637 3.58333L10.7636 0ZM18.5129 2.03216H12.7957V5.00046L12.1183 5.2389C10.8203 5.7003 9.70015 6.35573 8.72989 7.18194L8.74493 7.16944L8.20303 7.63143L5.65062 6.16418L2.77579 11.1768L5.34988 12.6576L5.21443 13.3702C5.09631 13.9519 5.02868 14.6205 5.02868 15.3048C5.02868 15.9892 5.09631 16.6578 5.22515 17.3042L5.21443 17.2394L5.34988 17.952L2.77585 19.4328L5.65065 24.4454L8.20303 22.9633L8.7449 23.4253C9.69792 24.2383 10.8153 24.8934 12.0358 25.3325L12.1102 25.3558L12.7875 25.5942V28.4501H18.5046V25.4818L19.182 25.2433C20.4831 24.7829 21.6061 24.1273 22.5787 23.3002L22.5635 23.3128L23.1054 22.8508L25.6578 24.3181L28.5327 19.3055L25.9505 17.8328L26.0859 17.1188C26.2033 16.546 26.2704 15.8875 26.2704 15.2134C26.2704 14.5393 26.2033 13.8808 26.0753 13.2444L26.0859 13.3079L25.9505 12.5939L28.5313 11.1118L25.6565 6.09919L23.1054 7.57726L22.5635 7.11258C21.6105 6.29962 20.4932 5.64437 19.2726 5.20535L19.1983 5.18205L18.5208 4.9436L18.5129 2.03216ZM15.6543 9.04984C19.0737 9.04984 21.8456 11.8218 21.8456 15.2411C21.8456 18.6605 19.0737 21.4325 15.6543 21.4325C12.235 21.4325 9.46302 18.6605 9.46302 15.2411C9.46689 11.8233 12.2365 9.05371 15.6539 9.04984H15.6543ZM15.6543 19.4003C17.9513 19.4003 19.8135 17.5382 19.8135 15.2411C19.8135 12.944 17.9513 11.082 15.6543 11.082C13.3573 11.082 11.4951 12.9441 11.4951 15.2412C11.4975 17.5372 13.3582 19.3979 15.6541 19.4003H15.6543Z" fill="#323232"/>
</svg>
