<svg width="23" height="23" viewBox="0 0 23 23" fill="none" xmlns="http://www.w3.org/2000/svg">
<path d="M11.2913 0C17.5274 0 22.5827 5.0553 22.5827 11.2913C22.5827 17.5274 17.5274 22.5827 11.2913 22.5827C5.0553 22.5827 0 17.5274 0 11.2913C0 5.0553 5.0553 0 11.2913 0ZM11.2913 20.619C16.4428 20.619 20.619 16.4428 20.619 11.2913C20.619 6.13982 16.4428 1.9637 11.2913 1.9637C6.13984 1.9637 1.9637 6.13982 1.9637 11.2913C1.96983 16.4404 6.14229 20.6128 11.2907 20.6189H11.2913L11.2913 20.619ZM16.9174 12.2732H5.66529V10.3095H16.9174V12.2732ZM12.2732 16.9174H10.3095V5.66529H12.2732V16.9174Z" fill="black" fill-opacity="0.5"/>
</svg>
