<svg width="29" height="29" viewBox="0 0 29 29" fill="none" xmlns="http://www.w3.org/2000/svg">
<path d="M14.0059 19.0107C15.8348 19.0107 17.3175 20.4934 17.3175 22.3223C17.3175 24.1513 15.8348 25.634 14.0059 25.634C12.177 25.634 10.6943 24.1513 10.6943 22.3223C10.6964 20.4942 12.1778 19.0129 14.0057 19.0107H14.0059ZM14.0059 23.7665C14.8035 23.7665 15.4501 23.12 15.4501 22.3224C15.4501 21.5248 14.8035 20.8782 14.0059 20.8782C13.2084 20.8782 12.5618 21.5248 12.5618 22.3224C12.5625 23.1197 13.2087 23.7659 14.0059 23.7666H14.006L14.0059 23.7665ZM18.5002 28.2733H16.6328C16.6328 26.8225 15.4567 25.6465 14.0059 25.6465C12.5552 25.6465 11.3791 26.8226 11.3791 28.2733H9.51157C9.51654 25.7906 11.5243 23.7786 14.0048 23.7665H14.0059C16.4876 23.7786 18.4954 25.7907 18.5003 28.2729L18.5002 28.2733ZM23.5175 19.0107C25.3464 19.0107 26.8291 20.4934 26.8291 22.3223C26.8291 24.1513 25.3464 25.634 23.5175 25.634C21.6886 25.634 20.2059 24.1513 20.2059 22.3223C20.208 20.4942 21.6894 19.0129 23.5173 19.0107H23.5175ZM23.5175 23.7665C24.3151 23.7665 24.9617 23.12 24.9617 22.3224C24.9617 21.5248 24.3151 20.8782 23.5175 20.8782C22.7199 20.8782 22.0733 21.5248 22.0733 22.3224C22.074 23.1197 22.7202 23.7659 23.5174 23.7666H23.5175V23.7665ZM28.0118 28.2733H26.1444C26.1444 26.8191 24.9655 25.6402 23.5113 25.6402C22.0571 25.6402 20.8782 26.8191 20.8782 28.2733H19.0107C19.0107 25.7878 21.0257 23.7728 23.5113 23.7728C25.9968 23.7728 28.0118 25.7878 28.0118 28.2733H28.0118ZM4.49437 19.0107C6.3233 19.0107 7.80599 20.4934 7.80599 22.3223C7.80599 24.1513 6.3233 25.634 4.49437 25.634C2.66544 25.634 1.18276 24.1513 1.18276 22.3223C1.18488 20.4942 2.66627 19.0129 4.49418 19.0107H4.49437ZM4.49437 23.7665C5.29196 23.7665 5.93854 23.12 5.93854 22.3224C5.93854 21.5248 5.29199 20.8782 4.4944 20.8782C3.69681 20.8782 3.05023 21.5248 3.05023 22.3224C3.05097 23.1197 3.69714 23.7659 4.49434 23.7666H4.49443L4.49437 23.7665ZM9.00117 28.2733H7.13372C7.13372 26.8191 5.95483 25.6402 4.50061 25.6402C3.04639 25.6402 1.8675 26.8191 1.8675 28.2733H0C0 25.7878 2.01502 23.7728 4.50058 23.7728C6.98614 23.7728 9.00111 25.7878 9.00111 28.2733H9.00117ZM3.31164 8.2839e-05H24.7002C26.5283 0.00220886 28.0097 1.4836 28.0118 3.31151V9.25535C28.0118 10.1687 27.6428 10.9959 27.0456 11.5958L27.0457 11.5957C26.452 12.1925 25.6301 12.5618 24.7219 12.5618H23.256V15.724L18.4791 12.5369H16.771L14.0059 15.302L11.2408 12.5369H9.53275L4.75584 15.724V12.5618H3.28997C2.3818 12.5618 1.55989 12.1925 0.966205 11.5958L0.966067 11.5957C0.369043 10.9954 0 10.1679 0 9.2543V9.24994V9.25016V3.31167C0.00212602 1.48352 1.48352 0.00212602 3.31142 0H3.31162L3.31164 8.2839e-05ZM24.7127 10.6944H24.7164C25.1105 10.6944 25.4672 10.5339 25.7248 10.2749L25.7248 10.2748C25.9842 10.0144 26.1444 9.65521 26.1444 9.25858V9.24974V9.25019V3.3117C26.1437 2.51436 25.4975 1.86822 24.7003 1.8675H3.31162C2.51433 1.86822 1.86819 2.51436 1.86747 3.31159V9.25701C1.86747 9.65413 2.02772 10.0138 2.2871 10.2749L2.28701 10.2748C2.54462 10.5339 2.90135 10.6944 3.29549 10.6944H6.62323V12.2381L8.96751 10.6695H12.0139L14.0059 12.6614L15.9978 10.6695H19.0455L21.3885 12.2381V10.6944H24.7127ZM15.089 4.50688H15.0824C14.6469 4.50688 14.2589 4.71009 14.0081 5.0269L14.0059 5.02974C13.7529 4.71009 13.3649 4.50685 12.9295 4.50685H12.9224H12.9228C12.2352 4.50685 11.6778 5.06425 11.6778 5.75181C11.628 7.46988 14.0059 8.06746 14.0059 8.06746C14.0059 8.06746 16.3838 7.46988 16.3838 5.68958C16.3503 5.02886 15.8064 4.5058 15.1403 4.5058C15.1223 4.5058 15.1043 4.50619 15.0865 4.50691L15.089 4.50688ZM22.2227 4.50688C22.2153 4.50674 22.2067 4.50666 22.1979 4.50666C21.7679 4.50666 21.3855 4.71042 21.1419 5.02665L21.1396 5.02977C20.8866 4.71012 20.4986 4.50688 20.0631 4.50688H20.0561H20.0565C19.3689 4.50688 18.8115 5.06434 18.8115 5.75184C18.8115 7.53217 21.1894 8.12975 21.1894 8.12975C21.1894 8.12975 23.5673 7.53217 23.5673 5.75187V5.74789C23.5673 5.06031 23.0099 4.50293 22.3223 4.50293C22.2873 4.50293 22.2526 4.50437 22.2182 4.50721L22.2227 4.50693L22.2227 4.50688ZM7.95539 4.50688H7.94876C7.51329 4.50688 7.12527 4.71009 6.87443 5.0269L6.87228 5.02974C6.62638 4.71037 6.24394 4.50663 5.81396 4.50663C5.80521 4.50663 5.79651 4.50674 5.78784 4.50691H5.78914C5.10158 4.50691 4.54418 5.06428 4.54418 5.75187C4.54418 7.53214 6.92209 8.12969 6.92209 8.12969C6.92209 8.12969 9.29997 7.53214 9.29997 5.75187V5.74784C9.29997 5.06025 8.74256 4.50287 8.05501 4.50287C8.01994 4.50287 7.98523 4.50431 7.95091 4.50715L7.95541 4.50682L7.95539 4.50688Z" fill="#323232"/>
</svg>
